<?xml version="1.0" standalone="no"?>
<!DOCTYPE svg PUBLIC "-//W3C//DTD SVG 20010904//EN"
 "http://www.w3.org/TR/2001/REC-SVG-20010904/DTD/svg10.dtd">
<svg version="1.0" xmlns="http://www.w3.org/2000/svg"
 width="512.000000pt" height="512.000000pt" viewBox="0 0 512.000000 512.000000"
 preserveAspectRatio="xMidYMid meet">
<metadata>
Created by potrace 1.14, written by Peter Selinger 2001-2017
</metadata>
<g transform="translate(0.000000,512.000000) scale(0.100000,-0.100000)"
fill="#000000" stroke="none">
<path d="M2408 5115 c-2 -2 -30 -6 -63 -9 -33 -4 -67 -9 -75 -11 -8 -2 -26 -6
-40 -9 -98 -16 -273 -78 -393 -137 -319 -159 -582 -424 -736 -744 -41 -84 -88
-204 -83 -212 1 -2 -5 -17 -13 -35 -7 -18 -18 -60 -24 -93 -6 -33 -13 -71 -16
-85 -20 -100 -27 -389 -13 -510 9 -83 66 -298 93 -357 14 -29 37 -79 52 -110
15 -32 65 -123 112 -203 46 -80 95 -165 109 -190 13 -25 42 -74 62 -110 20
-36 49 -86 63 -112 15 -26 48 -85 73 -130 80 -141 272 -496 341 -633 36 -71
74 -143 83 -160 27 -46 206 -404 275 -550 68 -142 87 -183 135 -295 18 -41 40
-93 50 -115 9 -22 34 -85 54 -140 50 -135 57 -148 88 -159 43 -15 74 13 97 86
22 73 109 283 186 453 79 174 336 694 360 729 14 19 14 19 24 -5 24 -61 108
-238 129 -271 80 -129 281 -180 423 -107 51 26 122 95 142 140 27 58 40 128
35 187 -6 56 -46 157 -164 410 -24 52 -44 95 -44 97 0 2 -17 41 -39 87 -21 45
-53 114 -70 152 l-31 69 39 71 c21 39 115 204 209 367 222 387 266 480 297
640 2 9 8 34 15 55 31 109 34 467 5 619 -74 387 -246 687 -548 952 -54 48
-214 155 -298 201 -102 55 -315 132 -404 146 -11 2 -33 6 -50 9 -68 15 -118
19 -277 22 -92 1 -168 2 -170 0z m277 -469 c181 -21 368 -89 529 -194 97 -63
250 -219 317 -322 99 -152 157 -306 182 -476 13 -89 15 -248 4 -309 -3 -16 -9
-50 -12 -75 -17 -121 -117 -355 -199 -464 -66 -87 -176 -198 -269 -271 -46
-37 -39 -54 39 -94 40 -20 79 -43 89 -51 37 -31 107 -166 247 -480 11 -25 33
-72 48 -105 250 -544 245 -530 245 -620 0 -64 -5 -89 -24 -128 -71 -145 -232
-206 -384 -146 -89 35 -132 84 -192 219 -15 36 -46 103 -67 150 -22 46 -51
109 -65 140 -26 57 -47 102 -107 233 -20 42 -36 79 -36 81 0 2 -19 44 -41 93
-108 230 -127 283 -124 342 1 31 11 82 21 114 24 78 19 82 -97 61 -110 -19
-261 -25 -345 -13 -33 5 -78 11 -102 15 -61 8 -213 59 -296 101 -227 113 -394
274 -510 494 -45 83 -100 232 -111 299 -3 19 -8 42 -10 50 -16 54 -23 248 -12
330 37 274 153 513 335 692 110 108 309 237 422 272 14 5 30 10 35 12 62 22
177 46 245 51 47 3 86 6 87 7 3 2 110 -3 158 -8z"/>
<path d="M2507 4344 c-1 -1 -22 -4 -47 -7 -217 -27 -410 -128 -539 -282 -31
-37 -37 -40 -76 -37 -116 9 -180 -112 -109 -205 18 -24 22 -37 16 -50 -42 -81
-59 -366 -28 -454 3 -8 7 -26 10 -40 15 -93 110 -266 201 -367 77 -85 286
-211 403 -241 118 -31 296 -34 417 -7 195 44 404 186 514 349 181 268 195 618
37 902 -48 86 -65 109 -138 185 -121 125 -309 221 -479 245 -46 7 -177 13
-182 9z m168 -39 c209 -26 428 -157 549 -329 221 -311 215 -703 -16 -1003 -86
-112 -238 -218 -383 -268 -105 -36 -310 -51 -405 -31 -14 3 -41 9 -60 12 -42
8 -199 82 -253 118 -21 14 -40 26 -43 26 -2 0 -19 12 -36 28 -252 217 -349
549 -256 875 11 35 13 37 52 37 109 0 169 115 105 203 l-21 28 81 80 c44 43
85 79 90 79 5 0 16 6 24 14 20 20 121 69 197 96 105 37 252 51 375 35z"/>
</g>
</svg>
